<svg xmlns="http://www.w3.org/2000/svg" class="svg-icon" style="width: 1em; height: 1em;vertical-align: middle;fill: currentColor;overflow: hidden;" viewBox="0 0 1024 1024" version="1.1"><path d="M983.04 936.96l-204.8-204.8C849.92 655.36 896 552.96 896 435.2 896 194.56 701.44 0 460.8 0S25.6 194.56 25.6 435.2s194.56 435.2 435.2 435.2c87.04 0 168.96-25.6 235.52-71.68l209.92 209.92c20.48 20.48 56.32 20.48 76.8 0s20.48-51.2 0-71.68zM133.12 440.32c0-179.2 143.36-327.68 327.68-327.68 179.2 0 327.68 143.36 327.68 327.68C788.48 619.52 645.12 768 460.8 768c-179.2-5.12-327.68-148.48-327.68-327.68z" fill="#fafafa"/></svg>